<?xml version="1.0" encoding="utf-8"?>
<!DOCTYPE svg PUBLIC "-//W3C//DTD SVG 1.1//EN" "http://www.w3.org/Graphics/SVG/1.1/DTD/svg11.dtd">
<svg version="1.1" id="stroke-design" xmlns="http://www.w3.org/2000/svg" xmlns:xlink="http://www.w3.org/1999/xlink" x="0px"
	 y="0px" width="500px" height="500px" viewBox="0 0 500 500" enable-background="new 0 0 500 500" xml:space="preserve">
<polygon id="_x35_8.8deg__x28_best_x29_" fill="#231F20" points="203.625,159.033 188.62,158.988 192.686,165.878 296.084,341.543 
	311.04,341.294 306.975,334.404 "/>
<path fill="#FFFFFF" stroke="#231F20" stroke-width="15" stroke-miterlimit="10" d="M458.014,40.566
	c-27.615-22.825-44.546-26.136-72.234-26.391c-40.174-0.368-77.86,29.823-82.246,77.78c0,62.394,0,249.588,0,249.588"/>
<path fill="#FFFFFF" stroke="#231F20" stroke-width="14.3708" stroke-miterlimit="10" d="M41.366,460.003
	c27.63,22.824,44.56,26.144,72.25,26.385c40.175,0.375,77.859-29.81,82.246-77.762c0-62.399,0-249.593,0-249.593"/>
<line fill="#FFFFFF" stroke="#231F20" stroke-width="14.3708" stroke-miterlimit="10" x1="108.656" y1="342.104" x2="225.644" y2="342.104"/>
<line fill="#FFFFFF" stroke="#231F20" stroke-width="14.3708" stroke-miterlimit="10" x1="273.502" y1="159.453" x2="390.49" y2="159.453"/>
</svg>
